<?xml version="1.0" encoding="utf-8"?>
<!-- Generated by IcoMoon.io -->
<!DOCTYPE svg PUBLIC "-//W3C//DTD SVG 1.1//EN" "http://www.w3.org/Graphics/SVG/1.1/DTD/svg11.dtd">
<svg version="1.1" xmlns="http://www.w3.org/2000/svg" xmlns:xlink="http://www.w3.org/1999/xlink" width="36" height="28" viewBox="0 0 36 28">
<path fill="#666666" d="M21.734 17.906v0l-0.016-0.016q-0.234-0.281-0.539-0.586t-0.977-0.898-1.461-0.969-1.492-0.375q-0.75 0-1.297 0.336t-0.797 0.844-0.359 0.922-0.109 0.742v0 0q0 0.328 0.109 0.75t0.359 0.922 0.797 0.836 1.297 0.336q0.703 0 1.492-0.375t1.469-0.977 0.969-0.891 0.539-0.586zM32.859 17.906q0-0.328-0.109-0.742t-0.359-0.922-0.797-0.844-1.297-0.336q-0.703 0-1.492 0.375t-1.469 0.977-0.969 0.891-0.539 0.586l-0.016 0.016 0.016 0.016q0.234 0.281 0.539 0.586t0.977 0.898 1.461 0.969 1.492 0.375q0.75 0 1.297-0.336t0.797-0.836 0.359-0.922 0.109-0.75zM36 17.859q0 1.078-0.375 2.148t-1.062 1.969-1.813 1.461-2.484 0.562q-1.062 0-2.094-0.375t-1.773-0.914-1.32-1.086-0.93-0.922-0.398-0.375-0.352 0.375-0.852 0.914-1.273 1.086-1.797 0.922-2.242 0.375q-1.016 0-1.93-0.352t-1.508-0.844-1.039-1.039-0.641-0.93-0.195-0.508q0 0.125-0.133 0.414t-0.391 0.711-0.734 0.859-1.078 0.82-1.508 0.625-1.953 0.242q-1.109 0-2.031-0.242t-1.539-0.617-1.102-0.883-0.75-0.992-0.43-0.992-0.219-0.844-0.055-0.57h3.391q0 0.859 0.766 1.68t1.969 0.82q1.234 0 2.102-1.047t0.867-2.312q0-1.25-0.812-2.133t-2.156-0.883q-0.078 0-0.203 0.008t-0.484 0.078-0.672 0.187-0.656 0.383-0.531 0.625h-3.047l1.594-9.109h9.406v2.719h-6.953q-0.422 2.484-0.641 3.875 0.063 0 0.258-0.203t0.492-0.445 1.016-0.445 1.687-0.203 1.781 0.32 1.289 0.773 0.805 0.914 0.484 0.781 0.172 0.32 0.203-0.391 0.57-0.945 0.945-1.117 1.516-0.953 2.078-0.391 2.195 0.391 1.805 0.945 1.305 1.117 0.883 0.953 0.328 0.391q0.031 0 0.344-0.391t0.875-0.945 1.305-1.117 1.805-0.953 2.188-0.391q1.437 0 2.57 0.547t1.805 1.453 1.016 1.953 0.344 2.141z"></path>
</svg>
